<svg xmlns="http://www.w3.org/2000/svg" xmlns:xlink="http://www.w3.org/1999/xlink" width="500" zoomAndPan="magnify" viewBox="0 0 375 374.999991" height="500" preserveAspectRatio="xMidYMid meet" version="1.0"><defs><clipPath id="bf4fb5f759"><path d="M 10.113281 10.535156 L 364.113281 10.535156 L 364.113281 364.535156 L 10.113281 364.535156 Z M 10.113281 10.535156 " clip-rule="nonzero"/></clipPath></defs><path fill="#004aad" d="M 187.5 375 C 84.113281 375 0 290.886719 0 187.5 C 0 84.113281 84.113281 0 187.5 0 C 290.886719 0 375 84.113281 375 187.5 C 375 290.886719 290.886719 375 187.5 375 Z M 187.5 375 " fill-opacity="1" fill-rule="nonzero"/><path fill="#ffffff" d="M 135.496094 237.246094 C 132.714844 237.246094 129.914062 236.363281 127.539062 234.542969 L 80.3125 198.394531 C 77.113281 195.949219 75.214844 192.164062 75.167969 188.136719 C 75.121094 184.109375 76.929688 180.285156 80.070312 177.765625 L 126.328125 140.640625 C 131.976562 136.105469 140.226562 137.015625 144.757812 142.660156 C 149.285156 148.308594 148.382812 156.5625 142.738281 161.089844 L 109.527344 187.742188 L 143.472656 213.726562 C 149.226562 218.125 150.316406 226.355469 145.914062 232.101562 C 143.335938 235.476562 139.4375 237.246094 135.496094 237.246094 Z M 135.496094 237.246094 " fill-opacity="1" fill-rule="nonzero"/><path fill="#ffffff" d="M 239.503906 237.246094 C 235.5625 237.246094 231.664062 235.476562 229.085938 232.101562 C 224.683594 226.355469 225.777344 218.125 231.527344 213.726562 L 265.472656 187.742188 L 232.261719 161.089844 C 226.617188 156.558594 225.710938 148.308594 230.242188 142.660156 C 234.78125 137.015625 243.03125 136.109375 248.671875 140.640625 L 294.929688 177.765625 C 298.070312 180.285156 299.878906 184.109375 299.832031 188.136719 C 299.785156 192.167969 297.886719 195.949219 294.6875 198.394531 L 247.460938 234.542969 C 245.085938 236.363281 242.285156 237.246094 239.503906 237.246094 Z M 239.503906 237.246094 " fill-opacity="1" fill-rule="nonzero"/><path fill="#ffffff" d="M 166.1875 262.34375 C 165.050781 262.34375 163.894531 262.195312 162.746094 261.882812 C 155.757812 259.988281 151.628906 252.785156 153.523438 245.796875 L 186.992188 122.339844 C 188.886719 115.347656 196.085938 111.222656 203.078125 113.113281 C 210.0625 115.007812 214.195312 122.210938 212.300781 129.199219 L 178.828125 252.660156 C 177.25 258.496094 171.957031 262.339844 166.1875 262.339844 Z M 166.1875 262.34375 " fill-opacity="1" fill-rule="nonzero"/><path fill="#1971c2" d="M 375 187.5 C 375 190.570312 374.925781 193.636719 374.773438 196.699219 C 374.625 199.765625 374.398438 202.824219 374.097656 205.878906 C 373.796875 208.933594 373.421875 211.976562 372.96875 215.011719 C 372.519531 218.046875 371.996094 221.070312 371.398438 224.078125 C 370.796875 227.089844 370.125 230.082031 369.378906 233.058594 C 368.636719 236.035156 367.816406 238.992188 366.925781 241.929688 C 366.035156 244.863281 365.074219 247.777344 364.039062 250.667969 C 363.003906 253.554688 361.902344 256.417969 360.726562 259.253906 C 359.554688 262.089844 358.308594 264.890625 356.996094 267.667969 C 355.6875 270.441406 354.304688 273.179688 352.859375 275.886719 C 351.414062 278.59375 349.902344 281.261719 348.324219 283.894531 C 346.746094 286.527344 345.105469 289.117188 343.402344 291.667969 C 341.695312 294.222656 339.929688 296.730469 338.101562 299.195312 C 336.273438 301.660156 334.386719 304.078125 332.4375 306.449219 C 330.492188 308.820312 328.488281 311.144531 326.429688 313.417969 C 324.367188 315.691406 322.253906 317.914062 320.082031 320.082031 C 317.914062 322.253906 315.691406 324.367188 313.417969 326.429688 C 311.144531 328.488281 308.820312 330.492188 306.449219 332.4375 C 304.078125 334.386719 301.660156 336.273438 299.195312 338.101562 C 296.730469 339.929688 294.222656 341.695312 291.667969 343.402344 C 289.117188 345.105469 286.527344 346.746094 283.894531 348.324219 C 281.261719 349.902344 278.59375 351.414062 275.886719 352.859375 C 273.179688 354.308594 270.441406 355.6875 267.667969 356.996094 C 264.890625 358.308594 262.089844 359.554688 259.253906 360.726562 C 256.417969 361.902344 253.554688 363.003906 250.667969 364.039062 C 247.777344 365.074219 244.863281 366.035156 241.929688 366.925781 C 238.992188 367.816406 236.035156 368.636719 233.058594 369.378906 C 230.082031 370.125 227.089844 370.796875 224.078125 371.398438 C 221.070312 371.996094 218.046875 372.519531 215.011719 372.96875 C 211.976562 373.421875 208.933594 373.796875 205.878906 374.097656 C 202.824219 374.398438 199.765625 374.625 196.699219 374.773438 C 193.636719 374.925781 190.570312 375 187.5 375 C 184.429688 375 181.363281 374.925781 178.300781 374.773438 C 175.234375 374.625 172.175781 374.398438 169.121094 374.097656 C 166.066406 373.796875 163.023438 373.421875 159.988281 372.96875 C 156.953125 372.519531 153.929688 371.996094 150.921875 371.398438 C 147.910156 370.796875 144.917969 370.125 141.941406 369.378906 C 138.964844 368.636719 136.007812 367.816406 133.070312 366.925781 C 130.136719 366.035156 127.222656 365.074219 124.332031 364.039062 C 121.445312 363.003906 118.582031 361.902344 115.746094 360.726562 C 112.910156 359.554688 110.105469 358.308594 107.332031 356.996094 C 104.558594 355.6875 101.820312 354.308594 99.113281 352.859375 C 96.40625 351.414062 93.738281 349.902344 91.105469 348.324219 C 88.472656 346.746094 85.882812 345.105469 83.332031 343.402344 C 80.777344 341.695312 78.269531 339.929688 75.804688 338.101562 C 73.339844 336.273438 70.921875 334.386719 68.550781 332.4375 C 66.179688 330.492188 63.855469 328.488281 61.582031 326.429688 C 59.308594 324.367188 57.085938 322.253906 54.917969 320.082031 C 52.746094 317.914062 50.632812 315.691406 48.570312 313.417969 C 46.511719 311.144531 44.507812 308.820312 42.558594 306.449219 C 40.613281 304.078125 38.726562 301.660156 36.898438 299.195312 C 35.070312 296.730469 33.304688 294.222656 31.597656 291.667969 C 29.894531 289.117188 28.253906 286.527344 26.675781 283.894531 C 25.097656 281.261719 23.585938 278.59375 22.140625 275.886719 C 20.691406 273.179688 19.3125 270.441406 18.003906 267.667969 C 16.691406 264.890625 15.445312 262.089844 14.273438 259.253906 C 13.097656 256.417969 11.996094 253.554688 10.960938 250.667969 C 9.925781 247.777344 8.964844 244.863281 8.074219 241.929688 C 7.183594 238.992188 6.363281 236.035156 5.617188 233.058594 C 4.875 230.082031 4.203125 227.089844 3.601562 224.078125 C 3.003906 221.070312 2.480469 218.046875 2.03125 215.011719 C 1.578125 211.976562 1.203125 208.933594 0.902344 205.878906 C 0.601562 202.824219 0.375 199.765625 0.226562 196.699219 C 0.0742188 193.636719 0 190.570312 0 187.5 C 0 184.429688 0.0742188 181.363281 0.226562 178.300781 C 0.375 175.234375 0.601562 172.175781 0.902344 169.121094 C 1.203125 166.066406 1.578125 163.023438 2.03125 159.988281 C 2.480469 156.953125 3.003906 153.929688 3.601562 150.921875 C 4.203125 147.910156 4.875 144.917969 5.617188 141.941406 C 6.363281 138.964844 7.183594 136.007812 8.074219 133.070312 C 8.964844 130.136719 9.925781 127.222656 10.960938 124.332031 C 11.996094 121.445312 13.097656 118.582031 14.273438 115.746094 C 15.445312 112.910156 16.691406 110.105469 18.003906 107.332031 C 19.3125 104.558594 20.691406 101.820312 22.140625 99.113281 C 23.585938 96.40625 25.097656 93.738281 26.675781 91.105469 C 28.253906 88.472656 29.894531 85.882812 31.597656 83.332031 C 33.304688 80.777344 35.070312 78.269531 36.898438 75.804688 C 38.726562 73.339844 40.613281 70.921875 42.558594 68.550781 C 44.507812 66.179688 46.511719 63.855469 48.570312 61.582031 C 50.632812 59.308594 52.746094 57.085938 54.917969 54.917969 C 57.085938 52.746094 59.308594 50.632812 61.582031 48.570312 C 63.855469 46.511719 66.179688 44.507812 68.550781 42.558594 C 70.921875 40.613281 73.339844 38.726562 75.804688 36.898438 C 78.269531 35.070312 80.777344 33.304688 83.332031 31.597656 C 85.882812 29.894531 88.472656 28.253906 91.105469 26.675781 C 93.738281 25.097656 96.40625 23.585938 99.113281 22.140625 C 101.820312 20.691406 104.558594 19.3125 107.332031 18.003906 C 110.105469 16.691406 112.910156 15.445312 115.746094 14.273438 C 118.582031 13.097656 121.445312 11.996094 124.332031 10.960938 C 127.222656 9.925781 130.136719 8.964844 133.070312 8.074219 C 136.007812 7.183594 138.964844 6.363281 141.941406 5.617188 C 144.917969 4.875 147.910156 4.203125 150.921875 3.601562 C 153.929688 3.003906 156.953125 2.480469 159.988281 2.03125 C 163.023438 1.578125 166.066406 1.203125 169.121094 0.902344 C 172.175781 0.601562 175.234375 0.375 178.300781 0.226562 C 181.363281 0.0742188 184.429688 0 187.5 0 C 190.570312 0 193.636719 0.0742188 196.699219 0.226562 C 199.765625 0.375 202.824219 0.601562 205.878906 0.902344 C 208.933594 1.203125 211.976562 1.578125 215.011719 2.03125 C 218.046875 2.480469 221.070312 3.003906 224.078125 3.601562 C 227.089844 4.203125 230.082031 4.875 233.058594 5.617188 C 236.035156 6.363281 238.992188 7.183594 241.929688 8.074219 C 244.863281 8.964844 247.777344 9.925781 250.667969 10.960938 C 253.554688 11.996094 256.417969 13.097656 259.253906 14.273438 C 262.089844 15.445312 264.890625 16.691406 267.667969 18.003906 C 270.441406 19.3125 273.179688 20.691406 275.886719 22.140625 C 278.59375 23.585938 281.261719 25.097656 283.894531 26.675781 C 286.527344 28.253906 289.117188 29.894531 291.667969 31.597656 C 294.222656 33.304688 296.730469 35.070312 299.195312 36.898438 C 301.660156 38.726562 304.078125 40.613281 306.449219 42.558594 C 308.820312 44.507812 311.144531 46.511719 313.417969 48.570312 C 315.691406 50.632812 317.914062 52.746094 320.082031 54.917969 C 322.253906 57.085938 324.367188 59.308594 326.429688 61.582031 C 328.488281 63.855469 330.492188 66.179688 332.4375 68.550781 C 334.386719 70.921875 336.273438 73.339844 338.101562 75.804688 C 339.929688 78.269531 341.695312 80.777344 343.402344 83.332031 C 345.105469 85.882812 346.746094 88.472656 348.324219 91.105469 C 349.902344 93.738281 351.414062 96.40625 352.859375 99.113281 C 354.304688 101.820312 355.6875 104.558594 356.996094 107.332031 C 358.308594 110.105469 359.554688 112.910156 360.726562 115.746094 C 361.902344 118.582031 363.003906 121.445312 364.039062 124.332031 C 365.074219 127.222656 366.035156 130.136719 366.925781 133.070312 C 367.816406 136.007812 368.636719 138.964844 369.378906 141.941406 C 370.125 144.917969 370.796875 147.910156 371.398438 150.921875 C 371.996094 153.929688 372.519531 156.953125 372.96875 159.988281 C 373.421875 163.023438 373.796875 166.066406 374.097656 169.121094 C 374.398438 172.175781 374.625 175.234375 374.773438 178.300781 C 374.925781 181.363281 375 184.429688 375 187.5 Z M 375 187.5 " fill-opacity="1" fill-rule="nonzero"/><g clip-path="url(#bf4fb5f759)"><path fill="#ffffff" d="M 187.195312 10.535156 C 184.296875 10.535156 181.402344 10.605469 178.507812 10.75 C 175.613281 10.894531 172.726562 11.105469 169.84375 11.390625 C 166.960938 11.675781 164.085938 12.03125 161.222656 12.457031 C 158.355469 12.882812 155.503906 13.378906 152.660156 13.945312 C 149.820312 14.511719 146.996094 15.148438 144.183594 15.851562 C 141.375 16.558594 138.582031 17.332031 135.8125 18.171875 C 133.039062 19.015625 130.289062 19.925781 127.5625 20.902344 C 124.835938 21.878906 122.132812 22.921875 119.457031 24.03125 C 116.78125 25.140625 114.132812 26.316406 111.515625 27.554688 C 108.898438 28.792969 106.3125 30.097656 103.757812 31.464844 C 101.203125 32.832031 98.683594 34.257812 96.199219 35.75 C 93.714844 37.238281 91.265625 38.789062 88.859375 40.398438 C 86.449219 42.011719 84.082031 43.679688 81.757812 45.40625 C 79.429688 47.132812 77.148438 48.914062 74.910156 50.753906 C 72.671875 52.589844 70.476562 54.484375 68.332031 56.429688 C 66.1875 58.375 64.089844 60.375 62.042969 62.421875 C 59.992188 64.472656 57.996094 66.570312 56.054688 68.71875 C 54.109375 70.863281 52.21875 73.058594 50.378906 75.296875 C 48.542969 77.539062 46.761719 79.820312 45.035156 82.148438 C 43.3125 84.476562 41.644531 86.84375 40.035156 89.253906 C 38.425781 91.664062 36.878906 94.109375 35.390625 96.597656 C 33.902344 99.082031 32.476562 101.601562 31.109375 104.15625 C 29.746094 106.710938 28.445312 109.300781 27.207031 111.917969 C 25.96875 114.539062 24.796875 117.1875 23.6875 119.863281 C 22.582031 122.539062 21.539062 125.242188 20.5625 127.96875 C 19.589844 130.699219 18.679688 133.449219 17.839844 136.222656 C 17 138.992188 16.230469 141.785156 15.527344 144.59375 C 14.824219 147.40625 14.191406 150.230469 13.625 153.074219 C 13.0625 155.914062 12.566406 158.769531 12.140625 161.632812 C 11.71875 164.5 11.363281 167.375 11.082031 170.257812 C 10.796875 173.140625 10.585938 176.027344 10.445312 178.921875 C 10.304688 181.816406 10.234375 184.710938 10.234375 187.609375 C 10.234375 190.503906 10.308594 193.402344 10.449219 196.292969 C 10.59375 199.1875 10.808594 202.074219 11.09375 204.957031 C 11.378906 207.839844 11.734375 210.714844 12.160156 213.582031 C 12.585938 216.445312 13.082031 219.300781 13.644531 222.140625 C 14.210938 224.984375 14.847656 227.808594 15.550781 230.617188 C 16.257812 233.429688 17.03125 236.21875 17.871094 238.992188 C 18.714844 241.761719 19.625 244.511719 20.601562 247.238281 C 21.578125 249.96875 22.621094 252.667969 23.730469 255.34375 C 24.839844 258.023438 26.011719 260.667969 27.253906 263.289062 C 28.492188 265.90625 29.796875 268.492188 31.160156 271.046875 C 32.527344 273.601562 33.957031 276.121094 35.445312 278.605469 C 36.9375 281.089844 38.488281 283.535156 40.097656 285.945312 C 41.707031 288.351562 43.375 290.71875 45.101562 293.046875 C 46.828125 295.371094 48.609375 297.65625 50.449219 299.894531 C 52.289062 302.132812 54.179688 304.324219 56.125 306.472656 C 58.070312 308.617188 60.070312 310.714844 62.117188 312.761719 C 64.167969 314.808594 66.265625 316.808594 68.414062 318.75 C 70.558594 320.695312 72.753906 322.585938 74.992188 324.425781 C 77.234375 326.261719 79.515625 328.042969 81.84375 329.769531 C 84.171875 331.492188 86.539062 333.160156 88.949219 334.769531 C 91.359375 336.378906 93.804688 337.925781 96.292969 339.414062 C 98.777344 340.902344 101.296875 342.332031 103.851562 343.695312 C 106.40625 345.058594 108.996094 346.363281 111.613281 347.601562 C 114.234375 348.835938 116.882812 350.011719 119.558594 351.117188 C 122.234375 352.226562 124.9375 353.269531 127.664062 354.242188 C 130.394531 355.21875 133.144531 356.125 135.914062 356.964844 C 138.6875 357.804688 141.480469 358.578125 144.289062 359.28125 C 147.101562 359.984375 149.925781 360.617188 152.765625 361.183594 C 155.609375 361.746094 158.460938 362.242188 161.328125 362.664062 C 164.195312 363.089844 167.070312 363.445312 169.953125 363.726562 C 172.835938 364.011719 175.722656 364.222656 178.617188 364.363281 C 181.511719 364.503906 184.40625 364.574219 187.300781 364.574219 C 190.199219 364.574219 193.09375 364.5 195.988281 364.359375 C 198.882812 364.214844 201.769531 364.003906 204.652344 363.71875 C 207.535156 363.433594 210.410156 363.078125 213.277344 362.652344 C 216.140625 362.226562 218.996094 361.730469 221.835938 361.164062 C 224.675781 360.597656 227.503906 359.960938 230.3125 359.257812 C 233.121094 358.554688 235.914062 357.78125 238.6875 356.9375 C 241.457031 356.097656 244.207031 355.1875 246.933594 354.210938 C 249.660156 353.234375 252.363281 352.191406 255.039062 351.082031 C 257.714844 349.972656 260.363281 348.796875 262.980469 347.558594 C 265.601562 346.320312 268.1875 345.015625 270.742188 343.652344 C 273.296875 342.285156 275.816406 340.855469 278.300781 339.367188 C 280.785156 337.875 283.230469 336.324219 285.640625 334.714844 C 288.046875 333.105469 290.414062 331.4375 292.742188 329.710938 C 295.070312 327.984375 297.351562 326.203125 299.589844 324.363281 C 301.828125 322.527344 304.019531 320.632812 306.167969 318.6875 C 308.3125 316.742188 310.410156 314.746094 312.457031 312.695312 C 314.507812 310.644531 316.503906 308.546875 318.449219 306.402344 C 320.394531 304.253906 322.285156 302.0625 324.121094 299.820312 C 325.957031 297.582031 327.738281 295.296875 329.464844 292.96875 C 331.191406 290.644531 332.855469 288.273438 334.464844 285.863281 C 336.074219 283.457031 337.625 281.007812 339.113281 278.523438 C 340.601562 276.039062 342.027344 273.519531 343.394531 270.964844 C 344.757812 268.40625 346.058594 265.820312 347.296875 263.203125 C 348.535156 260.582031 349.707031 257.933594 350.816406 255.257812 C 351.925781 252.582031 352.964844 249.878906 353.941406 247.152344 C 354.917969 244.421875 355.824219 241.671875 356.664062 238.898438 C 357.503906 236.128906 358.277344 233.335938 358.980469 230.527344 C 359.683594 227.714844 360.316406 224.890625 360.882812 222.046875 C 361.445312 219.207031 361.941406 216.351562 362.367188 213.488281 C 362.789062 210.621094 363.144531 207.746094 363.425781 204.863281 C 363.710938 201.980469 363.921875 199.09375 364.0625 196.199219 C 364.207031 193.304688 364.277344 190.410156 364.273438 187.511719 C 364.269531 184.617188 364.191406 181.722656 364.042969 178.832031 C 363.898438 175.941406 363.679688 173.054688 363.390625 170.171875 C 363.101562 167.289062 362.742188 164.417969 362.3125 161.554688 C 361.882812 158.691406 361.382812 155.839844 360.8125 153 C 360.242188 150.160156 359.601562 147.335938 358.894531 144.527344 C 358.1875 141.71875 357.410156 138.929688 356.566406 136.160156 C 355.722656 133.390625 354.8125 130.644531 353.832031 127.917969 C 352.851562 125.191406 351.808594 122.492188 350.695312 119.820312 C 349.585938 117.144531 348.410156 114.5 347.167969 111.882812 C 345.925781 109.265625 344.621094 106.683594 343.253906 104.128906 C 341.886719 101.578125 340.457031 99.058594 338.96875 96.578125 C 337.476562 94.09375 335.925781 91.648438 334.316406 89.242188 C 332.703125 86.835938 331.035156 84.472656 329.308594 82.144531 C 327.582031 79.820312 325.800781 77.539062 323.960938 75.300781 C 322.125 73.066406 320.230469 70.875 318.285156 68.730469 C 316.339844 66.585938 314.34375 64.488281 312.296875 62.441406 C 310.246094 60.394531 308.152344 58.398438 306.003906 56.453125 C 303.859375 54.507812 301.667969 52.617188 299.429688 50.78125 C 297.1875 48.945312 294.90625 47.164062 292.582031 45.4375 C 290.253906 43.714844 287.886719 42.046875 285.480469 40.4375 C 283.074219 38.828125 280.628906 37.277344 278.144531 35.789062 C 275.660156 34.300781 273.144531 32.871094 270.589844 31.507812 C 268.035156 30.140625 265.449219 28.835938 262.832031 27.597656 C 260.214844 26.359375 257.570312 25.183594 254.894531 24.074219 C 252.222656 22.964844 249.519531 21.921875 246.792969 20.941406 C 244.070312 19.964844 241.320312 19.054688 238.550781 18.210938 C 235.78125 17.371094 232.992188 16.59375 230.183594 15.890625 C 227.375 15.183594 224.550781 14.546875 221.710938 13.976562 C 218.871094 13.410156 216.019531 12.910156 213.15625 12.484375 C 210.289062 12.054688 207.417969 11.695312 204.535156 11.410156 C 201.65625 11.121094 198.769531 10.90625 195.875 10.757812 C 192.984375 10.613281 190.089844 10.539062 187.195312 10.535156 Z M 236.078125 336.875 C 228.398438 338.441406 225.566406 333.714844 225.566406 329.644531 C 225.566406 324.449219 225.792969 307.949219 225.792969 287.398438 C 225.792969 273.140625 220.945312 263.8125 215.402344 259.066406 C 249.519531 255.21875 285.429688 242.242188 285.429688 183.277344 C 285.488281 179.496094 285.1875 175.746094 284.527344 172.023438 C 283.867188 168.300781 282.863281 164.675781 281.507812 161.148438 C 280.152344 157.617188 278.476562 154.25 276.480469 151.039062 C 274.480469 147.832031 272.195312 144.84375 269.625 142.070312 C 271.191406 138.222656 276.609375 122.519531 268.136719 101.335938 C 268.136719 101.335938 255.265625 97.140625 225.914062 117.019531 C 219.664062 115.335938 213.328125 114.070312 206.910156 113.222656 C 200.492188 112.371094 194.042969 111.949219 187.570312 111.949219 C 181.097656 111.949219 174.648438 112.371094 168.230469 113.222656 C 161.8125 114.070312 155.480469 115.335938 149.226562 117.019531 C 119.875 97.382812 106.984375 101.335938 106.984375 101.335938 C 98.632812 122.4375 103.949219 138.140625 105.515625 142.070312 C 102.964844 144.851562 100.695312 147.847656 98.710938 151.058594 C 96.726562 154.273438 95.066406 157.640625 93.722656 161.167969 C 92.378906 164.699219 91.378906 168.320312 90.726562 172.039062 C 90.074219 175.757812 89.773438 179.503906 89.832031 183.277344 C 89.832031 242 125.519531 255.21875 159.613281 259.066406 C 155.214844 262.894531 151.140625 269.558594 149.796875 279.617188 C 140.976562 283.570312 118.960938 290.109375 105.191406 266.96875 C 102.257812 262.324219 93.664062 251.042969 81.585938 251.164062 C 68.710938 251.386719 76.390625 258.496094 81.707031 261.347656 C 88.246094 265.074219 95.699219 278.621094 97.511719 283.019531 C 100.546875 291.71875 110.488281 308.195312 149.003906 301.085938 C 149.003906 313.960938 149.226562 326.058594 149.226562 329.601562 C 149.226562 333.675781 146.417969 338.175781 138.71875 336.832031 C 135.871094 335.878906 133.058594 334.84375 130.273438 333.726562 C 127.488281 332.609375 124.742188 331.410156 122.027344 330.128906 C 119.3125 328.847656 116.640625 327.492188 114.007812 326.054688 C 111.371094 324.617188 108.78125 323.105469 106.238281 321.515625 C 103.691406 319.925781 101.195312 318.265625 98.75 316.527344 C 96.300781 314.792969 93.90625 312.988281 91.566406 311.109375 C 89.226562 309.234375 86.941406 307.292969 84.714844 305.28125 C 82.488281 303.269531 80.320312 301.199219 78.214844 299.058594 C 76.109375 296.921875 74.070312 294.726562 72.09375 292.46875 C 70.117188 290.210938 68.207031 287.898438 66.367188 285.527344 C 64.527344 283.15625 62.757812 280.738281 61.058594 278.261719 C 59.359375 275.789062 57.738281 273.269531 56.1875 270.699219 C 54.636719 268.132812 53.164062 265.519531 51.765625 262.863281 C 50.371094 260.207031 49.050781 257.515625 47.8125 254.78125 C 46.574219 252.050781 45.417969 249.28125 44.339844 246.480469 C 43.265625 243.679688 42.273438 240.851562 41.363281 237.992188 C 40.453125 235.132812 39.628906 232.25 38.886719 229.34375 C 38.148438 226.433594 37.492188 223.507812 36.925781 220.5625 C 36.355469 217.617188 35.875 214.65625 35.480469 211.683594 C 35.085938 208.707031 34.777344 205.726562 34.558594 202.734375 C 34.339844 199.742188 34.207031 196.746094 34.164062 193.746094 C 34.121094 190.746094 34.164062 187.746094 34.296875 184.75 C 34.429688 181.75 34.648438 178.761719 34.957031 175.777344 C 35.265625 172.792969 35.660156 169.820312 36.144531 166.859375 C 36.625 163.898438 37.195312 160.953125 37.851562 158.023438 C 38.507812 155.097656 39.25 152.191406 40.074219 149.308594 C 40.902344 146.421875 41.8125 143.566406 42.804688 140.734375 C 43.800781 137.902344 44.875 135.105469 46.035156 132.335938 C 47.195312 129.570312 48.433594 126.839844 49.75 124.144531 C 51.070312 121.449219 52.46875 118.796875 53.941406 116.183594 C 55.417969 113.570312 56.96875 111.003906 58.59375 108.480469 C 60.21875 105.960938 61.917969 103.488281 63.6875 101.066406 C 65.460938 98.644531 67.300781 96.277344 69.210938 93.960938 C 71.121094 91.648438 73.097656 89.394531 75.136719 87.195312 C 77.179688 84.996094 79.285156 82.859375 81.453125 80.785156 C 83.621094 78.714844 85.847656 76.703125 88.132812 74.761719 C 90.421875 72.816406 92.761719 70.941406 95.15625 69.136719 C 97.554688 67.332031 100 65.597656 102.496094 63.933594 C 104.996094 62.273438 107.539062 60.6875 110.128906 59.171875 C 112.722656 57.660156 115.355469 56.226562 118.03125 54.867188 C 120.707031 53.507812 123.417969 52.230469 126.167969 51.03125 C 128.917969 49.832031 131.703125 48.714844 134.519531 47.679688 C 137.335938 46.644531 140.179688 45.695312 143.050781 44.824219 C 145.921875 43.957031 148.816406 43.175781 151.734375 42.476562 C 154.652344 41.777344 157.589844 41.167969 160.542969 40.640625 C 163.496094 40.113281 166.460938 39.675781 169.441406 39.324219 C 172.421875 38.972656 175.410156 38.710938 178.40625 38.53125 C 181.398438 38.355469 184.398438 38.269531 187.398438 38.269531 C 190.398438 38.269531 193.394531 38.355469 196.390625 38.53125 C 199.386719 38.710938 202.371094 38.972656 205.351562 39.324219 C 208.332031 39.675781 211.296875 40.113281 214.253906 40.640625 C 217.207031 41.167969 220.140625 41.777344 223.058594 42.476562 C 225.976562 43.175781 228.871094 43.957031 231.746094 44.824219 C 234.617188 45.695312 237.460938 46.644531 240.277344 47.679688 C 243.09375 48.714844 245.875 49.832031 248.625 51.03125 C 251.375 52.230469 254.089844 53.507812 256.765625 54.867188 C 259.441406 56.226562 262.074219 57.660156 264.664062 59.171875 C 267.253906 60.6875 269.800781 62.273438 272.296875 63.933594 C 274.796875 65.597656 277.242188 67.332031 279.636719 69.136719 C 282.035156 70.941406 284.375 72.816406 286.660156 74.761719 C 288.945312 76.703125 291.171875 78.714844 293.339844 80.785156 C 295.507812 82.859375 297.613281 84.996094 299.65625 87.195312 C 301.699219 89.394531 303.675781 91.648438 305.585938 93.960938 C 307.496094 96.277344 309.335938 98.644531 311.105469 101.066406 C 312.878906 103.488281 314.574219 105.960938 316.199219 108.480469 C 317.828125 111.003906 319.375 113.570312 320.851562 116.183594 C 322.328125 118.796875 323.722656 121.449219 325.042969 124.144531 C 326.363281 126.839844 327.601562 129.570312 328.757812 132.335938 C 329.917969 135.105469 330.996094 137.902344 331.988281 140.734375 C 332.984375 143.566406 333.894531 146.421875 334.71875 149.308594 C 335.546875 152.191406 336.285156 155.097656 336.941406 158.023438 C 337.597656 160.953125 338.167969 163.898438 338.652344 166.859375 C 339.132812 169.820312 339.527344 172.792969 339.835938 175.777344 C 340.144531 178.761719 340.367188 181.75 340.5 184.75 C 340.632812 187.746094 340.675781 190.746094 340.632812 193.746094 C 340.589844 196.746094 340.457031 199.742188 340.238281 202.734375 C 340.019531 205.726562 339.710938 208.707031 339.316406 211.683594 C 338.921875 214.65625 338.4375 217.617188 337.871094 220.5625 C 337.300781 223.507812 336.648438 226.433594 335.90625 229.34375 C 335.167969 232.25 334.339844 235.132812 333.433594 237.992188 C 332.523438 240.851562 331.527344 243.679688 330.453125 246.480469 C 329.375 249.28125 328.21875 252.050781 326.980469 254.78125 C 325.742188 257.515625 324.425781 260.207031 323.027344 262.863281 C 321.632812 265.519531 320.15625 268.132812 318.609375 270.699219 C 317.058594 273.269531 315.433594 275.789062 313.734375 278.261719 C 312.039062 280.738281 310.269531 283.15625 308.425781 285.527344 C 306.585938 287.898438 304.679688 290.210938 302.703125 292.46875 C 300.726562 294.726562 298.683594 296.921875 296.578125 299.058594 C 294.472656 301.199219 292.308594 303.269531 290.082031 305.28125 C 287.855469 307.292969 285.570312 309.234375 283.226562 311.109375 C 280.886719 312.988281 278.492188 314.792969 276.046875 316.527344 C 273.597656 318.265625 271.101562 319.925781 268.558594 321.515625 C 266.011719 323.105469 263.421875 324.617188 260.789062 326.054688 C 258.15625 327.492188 255.480469 328.847656 252.765625 330.128906 C 250.054688 331.410156 247.304688 332.609375 244.519531 333.726562 C 241.738281 334.84375 238.921875 335.878906 236.078125 336.832031 Z M 236.078125 336.875 " fill-opacity="1" fill-rule="evenodd"/></g></svg>