<svg xmlns="http://www.w3.org/2000/svg" xmlns:xlink="http://www.w3.org/1999/xlink" width="500" zoomAndPan="magnify" viewBox="0 0 375 374.999991" height="500" preserveAspectRatio="xMidYMid meet" version="1.0"><defs><clipPath id="2ab4c0a81a"><path d="M 78.773438 62.132812 L 296.273438 62.132812 L 296.273438 312.632812 L 78.773438 312.632812 Z M 78.773438 62.132812 " clip-rule="nonzero"/></clipPath></defs><path fill="#004aad" d="M 187.5 375 C 84.113281 375 0 290.886719 0 187.5 C 0 84.113281 84.113281 0 187.5 0 C 290.886719 0 375 84.113281 375 187.5 C 375 290.886719 290.886719 375 187.5 375 Z M 187.5 375 " fill-opacity="1" fill-rule="nonzero"/><path fill="#ffffff" d="M 135.496094 237.246094 C 132.714844 237.246094 129.914062 236.363281 127.539062 234.542969 L 80.3125 198.394531 C 77.113281 195.949219 75.214844 192.164062 75.167969 188.136719 C 75.121094 184.109375 76.929688 180.285156 80.070312 177.765625 L 126.328125 140.640625 C 131.976562 136.105469 140.226562 137.015625 144.757812 142.660156 C 149.285156 148.308594 148.382812 156.5625 142.738281 161.089844 L 109.527344 187.742188 L 143.472656 213.726562 C 149.226562 218.125 150.316406 226.355469 145.914062 232.101562 C 143.335938 235.476562 139.4375 237.246094 135.496094 237.246094 Z M 135.496094 237.246094 " fill-opacity="1" fill-rule="nonzero"/><path fill="#ffffff" d="M 239.503906 237.246094 C 235.5625 237.246094 231.664062 235.476562 229.085938 232.101562 C 224.683594 226.355469 225.777344 218.125 231.527344 213.726562 L 265.472656 187.742188 L 232.261719 161.089844 C 226.617188 156.558594 225.710938 148.308594 230.242188 142.660156 C 234.78125 137.015625 243.03125 136.109375 248.671875 140.640625 L 294.929688 177.765625 C 298.070312 180.285156 299.878906 184.109375 299.832031 188.136719 C 299.785156 192.167969 297.886719 195.949219 294.6875 198.394531 L 247.460938 234.542969 C 245.085938 236.363281 242.285156 237.246094 239.503906 237.246094 Z M 239.503906 237.246094 " fill-opacity="1" fill-rule="nonzero"/><path fill="#ffffff" d="M 166.1875 262.34375 C 165.050781 262.34375 163.894531 262.195312 162.746094 261.882812 C 155.757812 259.988281 151.628906 252.785156 153.523438 245.796875 L 186.992188 122.339844 C 188.886719 115.347656 196.085938 111.222656 203.078125 113.113281 C 210.0625 115.007812 214.195312 122.210938 212.300781 129.199219 L 178.828125 252.660156 C 177.25 258.496094 171.957031 262.339844 166.1875 262.339844 Z M 166.1875 262.34375 " fill-opacity="1" fill-rule="nonzero"/><path fill="#1971c2" d="M 375 187.5 C 375 190.570312 374.925781 193.636719 374.773438 196.699219 C 374.625 199.765625 374.398438 202.824219 374.097656 205.878906 C 373.796875 208.933594 373.421875 211.976562 372.96875 215.011719 C 372.519531 218.046875 371.996094 221.070312 371.398438 224.078125 C 370.796875 227.089844 370.125 230.082031 369.378906 233.058594 C 368.636719 236.035156 367.816406 238.992188 366.925781 241.929688 C 366.035156 244.863281 365.074219 247.777344 364.039062 250.667969 C 363.003906 253.554688 361.902344 256.417969 360.726562 259.253906 C 359.554688 262.089844 358.308594 264.890625 356.996094 267.667969 C 355.6875 270.441406 354.304688 273.179688 352.859375 275.886719 C 351.414062 278.59375 349.902344 281.261719 348.324219 283.894531 C 346.746094 286.527344 345.105469 289.117188 343.402344 291.667969 C 341.695312 294.222656 339.929688 296.730469 338.101562 299.195312 C 336.273438 301.660156 334.386719 304.078125 332.4375 306.449219 C 330.492188 308.820312 328.488281 311.144531 326.429688 313.417969 C 324.367188 315.691406 322.253906 317.914062 320.082031 320.082031 C 317.914062 322.253906 315.691406 324.367188 313.417969 326.429688 C 311.144531 328.488281 308.820312 330.492188 306.449219 332.4375 C 304.078125 334.386719 301.660156 336.273438 299.195312 338.101562 C 296.730469 339.929688 294.222656 341.695312 291.667969 343.402344 C 289.117188 345.105469 286.527344 346.746094 283.894531 348.324219 C 281.261719 349.902344 278.59375 351.414062 275.886719 352.859375 C 273.179688 354.308594 270.441406 355.6875 267.667969 356.996094 C 264.890625 358.308594 262.089844 359.554688 259.253906 360.726562 C 256.417969 361.902344 253.554688 363.003906 250.667969 364.039062 C 247.777344 365.074219 244.863281 366.035156 241.929688 366.925781 C 238.992188 367.816406 236.035156 368.636719 233.058594 369.378906 C 230.082031 370.125 227.089844 370.796875 224.078125 371.398438 C 221.070312 371.996094 218.046875 372.519531 215.011719 372.96875 C 211.976562 373.421875 208.933594 373.796875 205.878906 374.097656 C 202.824219 374.398438 199.765625 374.625 196.699219 374.773438 C 193.636719 374.925781 190.570312 375 187.5 375 C 184.429688 375 181.363281 374.925781 178.300781 374.773438 C 175.234375 374.625 172.175781 374.398438 169.121094 374.097656 C 166.066406 373.796875 163.023438 373.421875 159.988281 372.96875 C 156.953125 372.519531 153.929688 371.996094 150.921875 371.398438 C 147.910156 370.796875 144.917969 370.125 141.941406 369.378906 C 138.964844 368.636719 136.007812 367.816406 133.070312 366.925781 C 130.136719 366.035156 127.222656 365.074219 124.332031 364.039062 C 121.445312 363.003906 118.582031 361.902344 115.746094 360.726562 C 112.910156 359.554688 110.105469 358.308594 107.332031 356.996094 C 104.558594 355.6875 101.820312 354.308594 99.113281 352.859375 C 96.40625 351.414062 93.738281 349.902344 91.105469 348.324219 C 88.472656 346.746094 85.882812 345.105469 83.332031 343.402344 C 80.777344 341.695312 78.269531 339.929688 75.804688 338.101562 C 73.339844 336.273438 70.921875 334.386719 68.550781 332.4375 C 66.179688 330.492188 63.855469 328.488281 61.582031 326.429688 C 59.308594 324.367188 57.085938 322.253906 54.917969 320.082031 C 52.746094 317.914062 50.632812 315.691406 48.570312 313.417969 C 46.511719 311.144531 44.507812 308.820312 42.558594 306.449219 C 40.613281 304.078125 38.726562 301.660156 36.898438 299.195312 C 35.070312 296.730469 33.304688 294.222656 31.597656 291.667969 C 29.894531 289.117188 28.253906 286.527344 26.675781 283.894531 C 25.097656 281.261719 23.585938 278.59375 22.140625 275.886719 C 20.691406 273.179688 19.3125 270.441406 18.003906 267.667969 C 16.691406 264.890625 15.445312 262.089844 14.273438 259.253906 C 13.097656 256.417969 11.996094 253.554688 10.960938 250.667969 C 9.925781 247.777344 8.964844 244.863281 8.074219 241.929688 C 7.183594 238.992188 6.363281 236.035156 5.617188 233.058594 C 4.875 230.082031 4.203125 227.089844 3.601562 224.078125 C 3.003906 221.070312 2.480469 218.046875 2.03125 215.011719 C 1.578125 211.976562 1.203125 208.933594 0.902344 205.878906 C 0.601562 202.824219 0.375 199.765625 0.226562 196.699219 C 0.0742188 193.636719 0 190.570312 0 187.5 C 0 184.429688 0.0742188 181.363281 0.226562 178.300781 C 0.375 175.234375 0.601562 172.175781 0.902344 169.121094 C 1.203125 166.066406 1.578125 163.023438 2.03125 159.988281 C 2.480469 156.953125 3.003906 153.929688 3.601562 150.921875 C 4.203125 147.910156 4.875 144.917969 5.617188 141.941406 C 6.363281 138.964844 7.183594 136.007812 8.074219 133.070312 C 8.964844 130.136719 9.925781 127.222656 10.960938 124.332031 C 11.996094 121.445312 13.097656 118.582031 14.273438 115.746094 C 15.445312 112.910156 16.691406 110.105469 18.003906 107.332031 C 19.3125 104.558594 20.691406 101.820312 22.140625 99.113281 C 23.585938 96.40625 25.097656 93.738281 26.675781 91.105469 C 28.253906 88.472656 29.894531 85.882812 31.597656 83.332031 C 33.304688 80.777344 35.070312 78.269531 36.898438 75.804688 C 38.726562 73.339844 40.613281 70.921875 42.558594 68.550781 C 44.507812 66.179688 46.511719 63.855469 48.570312 61.582031 C 50.632812 59.308594 52.746094 57.085938 54.917969 54.917969 C 57.085938 52.746094 59.308594 50.632812 61.582031 48.570312 C 63.855469 46.511719 66.179688 44.507812 68.550781 42.558594 C 70.921875 40.613281 73.339844 38.726562 75.804688 36.898438 C 78.269531 35.070312 80.777344 33.304688 83.332031 31.597656 C 85.882812 29.894531 88.472656 28.253906 91.105469 26.675781 C 93.738281 25.097656 96.40625 23.585938 99.113281 22.140625 C 101.820312 20.691406 104.558594 19.3125 107.332031 18.003906 C 110.105469 16.691406 112.910156 15.445312 115.746094 14.273438 C 118.582031 13.097656 121.445312 11.996094 124.332031 10.960938 C 127.222656 9.925781 130.136719 8.964844 133.070312 8.074219 C 136.007812 7.183594 138.964844 6.363281 141.941406 5.617188 C 144.917969 4.875 147.910156 4.203125 150.921875 3.601562 C 153.929688 3.003906 156.953125 2.480469 159.988281 2.03125 C 163.023438 1.578125 166.066406 1.203125 169.121094 0.902344 C 172.175781 0.601562 175.234375 0.375 178.300781 0.226562 C 181.363281 0.0742188 184.429688 0 187.5 0 C 190.570312 0 193.636719 0.0742188 196.699219 0.226562 C 199.765625 0.375 202.824219 0.601562 205.878906 0.902344 C 208.933594 1.203125 211.976562 1.578125 215.011719 2.03125 C 218.046875 2.480469 221.070312 3.003906 224.078125 3.601562 C 227.089844 4.203125 230.082031 4.875 233.058594 5.617188 C 236.035156 6.363281 238.992188 7.183594 241.929688 8.074219 C 244.863281 8.964844 247.777344 9.925781 250.667969 10.960938 C 253.554688 11.996094 256.417969 13.097656 259.253906 14.273438 C 262.089844 15.445312 264.890625 16.691406 267.667969 18.003906 C 270.441406 19.3125 273.179688 20.691406 275.886719 22.140625 C 278.59375 23.585938 281.261719 25.097656 283.894531 26.675781 C 286.527344 28.253906 289.117188 29.894531 291.667969 31.597656 C 294.222656 33.304688 296.730469 35.070312 299.195312 36.898438 C 301.660156 38.726562 304.078125 40.613281 306.449219 42.558594 C 308.820312 44.507812 311.144531 46.511719 313.417969 48.570312 C 315.691406 50.632812 317.914062 52.746094 320.082031 54.917969 C 322.253906 57.085938 324.367188 59.308594 326.429688 61.582031 C 328.488281 63.855469 330.492188 66.179688 332.4375 68.550781 C 334.386719 70.921875 336.273438 73.339844 338.101562 75.804688 C 339.929688 78.269531 341.695312 80.777344 343.402344 83.332031 C 345.105469 85.882812 346.746094 88.472656 348.324219 91.105469 C 349.902344 93.738281 351.414062 96.40625 352.859375 99.113281 C 354.304688 101.820312 355.6875 104.558594 356.996094 107.332031 C 358.308594 110.105469 359.554688 112.910156 360.726562 115.746094 C 361.902344 118.582031 363.003906 121.445312 364.039062 124.332031 C 365.074219 127.222656 366.035156 130.136719 366.925781 133.070312 C 367.816406 136.007812 368.636719 138.964844 369.378906 141.941406 C 370.125 144.917969 370.796875 147.910156 371.398438 150.921875 C 371.996094 153.929688 372.519531 156.953125 372.96875 159.988281 C 373.421875 163.023438 373.796875 166.066406 374.097656 169.121094 C 374.398438 172.175781 374.625 175.234375 374.773438 178.300781 C 374.925781 181.363281 375 184.429688 375 187.5 Z M 375 187.5 " fill-opacity="1" fill-rule="nonzero"/><path fill="#ffffff" d="M 148.640625 196.589844 C 148.421875 196.425781 148.191406 196.28125 147.945312 196.160156 C 147.699219 196.039062 147.441406 195.945312 147.175781 195.875 C 146.910156 195.804688 146.640625 195.761719 146.367188 195.742188 C 146.09375 195.726562 145.820312 195.738281 145.550781 195.773438 C 145.277344 195.808594 145.011719 195.871094 144.75 195.960938 C 144.492188 196.050781 144.242188 196.164062 144.007812 196.300781 C 143.769531 196.4375 143.546875 196.597656 143.34375 196.78125 C 143.136719 196.960938 142.949219 197.160156 142.785156 197.378906 L 117.316406 230.777344 C 117.039062 231.140625 116.828125 231.539062 116.683594 231.972656 C 116.535156 232.40625 116.460938 232.851562 116.460938 233.308594 C 116.460938 233.765625 116.535156 234.210938 116.683594 234.644531 C 116.828125 235.078125 117.039062 235.476562 117.316406 235.839844 L 142.785156 269.242188 C 142.949219 269.457031 143.136719 269.65625 143.34375 269.839844 C 143.546875 270.019531 143.769531 270.179688 144.007812 270.316406 C 144.246094 270.457031 144.492188 270.570312 144.753906 270.65625 C 145.011719 270.746094 145.277344 270.808594 145.550781 270.84375 C 145.820312 270.882812 146.09375 270.890625 146.367188 270.875 C 146.640625 270.859375 146.910156 270.8125 147.175781 270.742188 C 147.441406 270.671875 147.699219 270.578125 147.945312 270.457031 C 148.191406 270.335938 148.421875 270.195312 148.640625 270.027344 C 148.859375 269.863281 149.058594 269.675781 149.242188 269.472656 C 149.421875 269.265625 149.582031 269.042969 149.71875 268.808594 C 149.859375 268.570312 149.972656 268.324219 150.0625 268.0625 C 150.152344 267.804688 150.214844 267.539062 150.25 267.265625 C 150.289062 266.996094 150.296875 266.722656 150.28125 266.449219 C 150.261719 266.175781 150.21875 265.90625 150.148438 265.640625 C 150.082031 265.375 149.984375 265.121094 149.863281 264.875 C 149.746094 264.628906 149.601562 264.394531 149.433594 264.179688 L 125.921875 233.308594 L 149.433594 202.441406 C 149.601562 202.222656 149.746094 201.988281 149.863281 201.742188 C 149.984375 201.496094 150.082031 201.242188 150.152344 200.976562 C 150.21875 200.710938 150.265625 200.441406 150.28125 200.167969 C 150.296875 199.894531 150.289062 199.621094 150.25 199.351562 C 150.214844 199.078125 150.152344 198.8125 150.0625 198.554688 C 149.972656 198.296875 149.859375 198.046875 149.722656 197.8125 C 149.582031 197.574219 149.421875 197.351562 149.242188 197.148438 C 149.058594 196.941406 148.859375 196.757812 148.640625 196.589844 Z M 148.640625 196.589844 " fill-opacity="1" fill-rule="nonzero"/><path fill="#ffffff" d="M 215.464844 197.375 C 215.300781 197.15625 215.113281 196.957031 214.90625 196.773438 C 214.699219 196.59375 214.480469 196.433594 214.242188 196.296875 C 214.003906 196.160156 213.753906 196.046875 213.496094 195.957031 C 213.234375 195.871094 212.96875 195.808594 212.699219 195.769531 C 212.425781 195.734375 212.152344 195.726562 211.878906 195.742188 C 211.605469 195.761719 211.335938 195.804688 211.070312 195.875 C 210.804688 195.945312 210.550781 196.039062 210.304688 196.160156 C 210.054688 196.28125 209.824219 196.425781 209.605469 196.59375 C 209.386719 196.757812 209.1875 196.945312 209.007812 197.152344 C 208.824219 197.355469 208.667969 197.578125 208.527344 197.816406 C 208.390625 198.054688 208.277344 198.300781 208.191406 198.5625 C 208.101562 198.820312 208.039062 199.085938 208.003906 199.359375 C 207.964844 199.628906 207.957031 199.902344 207.972656 200.175781 C 207.992188 200.449219 208.035156 200.71875 208.105469 200.984375 C 208.175781 201.25 208.273438 201.503906 208.394531 201.75 C 208.515625 201.996094 208.660156 202.226562 208.824219 202.445312 L 232.425781 233.308594 L 208.824219 264.171875 C 208.660156 264.390625 208.515625 264.621094 208.394531 264.867188 C 208.273438 265.113281 208.175781 265.371094 208.105469 265.636719 C 208.035156 265.898438 207.992188 266.167969 207.972656 266.441406 C 207.957031 266.714844 207.964844 266.988281 208.003906 267.261719 C 208.039062 267.53125 208.101562 267.796875 208.191406 268.058594 C 208.277344 268.316406 208.390625 268.566406 208.527344 268.804688 C 208.667969 269.039062 208.824219 269.261719 209.007812 269.46875 C 209.1875 269.671875 209.386719 269.859375 209.605469 270.027344 C 209.824219 270.191406 210.054688 270.335938 210.304688 270.457031 C 210.550781 270.578125 210.804688 270.671875 211.070312 270.742188 C 211.335938 270.816406 211.605469 270.859375 211.878906 270.875 C 212.152344 270.894531 212.425781 270.882812 212.699219 270.847656 C 212.96875 270.8125 213.234375 270.75 213.496094 270.660156 C 213.753906 270.570312 214.003906 270.460938 214.242188 270.320312 C 214.480469 270.183594 214.699219 270.023438 214.90625 269.84375 C 215.113281 269.664062 215.300781 269.464844 215.464844 269.246094 L 241.003906 235.84375 C 241.285156 235.480469 241.496094 235.082031 241.644531 234.648438 C 241.789062 234.214844 241.863281 233.769531 241.863281 233.308594 C 241.863281 232.851562 241.789062 232.40625 241.644531 231.96875 C 241.496094 231.535156 241.285156 231.136719 241.003906 230.773438 Z M 215.464844 197.375 " fill-opacity="1" fill-rule="nonzero"/><path fill="#ffffff" d="M 187.410156 195.828125 C 187.140625 195.769531 186.871094 195.738281 186.59375 195.734375 C 186.320312 195.726562 186.046875 195.75 185.777344 195.796875 C 185.507812 195.847656 185.246094 195.921875 184.992188 196.023438 C 184.734375 196.121094 184.492188 196.246094 184.261719 196.394531 C 184.03125 196.542969 183.816406 196.710938 183.617188 196.902344 C 183.421875 197.089844 183.242188 197.300781 183.085938 197.523438 C 182.929688 197.75 182.796875 197.988281 182.6875 198.238281 C 182.578125 198.488281 182.492188 198.75 182.433594 199.015625 L 167.804688 265.816406 C 167.734375 266.089844 167.695312 266.363281 167.679688 266.644531 C 167.664062 266.925781 167.679688 267.203125 167.722656 267.480469 C 167.765625 267.757812 167.832031 268.027344 167.929688 268.289062 C 168.027344 268.554688 168.148438 268.804688 168.296875 269.042969 C 168.441406 269.28125 168.613281 269.503906 168.804688 269.707031 C 168.996094 269.914062 169.207031 270.097656 169.4375 270.257812 C 169.664062 270.421875 169.90625 270.558594 170.164062 270.671875 C 170.421875 270.785156 170.6875 270.871094 170.960938 270.933594 C 171.234375 270.992188 171.511719 271.023438 171.792969 271.027344 C 172.074219 271.03125 172.351562 271.007812 172.628906 270.957031 C 172.902344 270.90625 173.171875 270.824219 173.429688 270.71875 C 173.691406 270.613281 173.9375 270.484375 174.171875 270.328125 C 174.40625 270.171875 174.621094 269.996094 174.820312 269.796875 C 175.015625 269.597656 175.191406 269.382812 175.347656 269.148438 C 175.5 268.914062 175.628906 268.667969 175.734375 268.40625 C 175.839844 268.144531 175.917969 267.878906 175.964844 267.601562 L 190.597656 200.800781 C 190.65625 200.535156 190.6875 200.261719 190.691406 199.988281 C 190.699219 199.714844 190.675781 199.441406 190.628906 199.171875 C 190.578125 198.902344 190.503906 198.640625 190.40625 198.386719 C 190.304688 198.128906 190.183594 197.886719 190.035156 197.65625 C 189.886719 197.425781 189.714844 197.210938 189.527344 197.011719 C 189.335938 196.816406 189.128906 196.636719 188.902344 196.480469 C 188.679688 196.324219 188.441406 196.191406 188.1875 196.082031 C 187.9375 195.972656 187.675781 195.886719 187.410156 195.828125 Z M 187.410156 195.828125 " fill-opacity="1" fill-rule="nonzero"/><g clip-path="url(#2ab4c0a81a)"><path fill="#ffffff" d="M 292.019531 62.132812 L 99.746094 62.132812 C 99.472656 62.132812 99.199219 62.160156 98.933594 62.214844 C 98.664062 62.269531 98.402344 62.347656 98.148438 62.453125 C 97.894531 62.558594 97.652344 62.6875 97.425781 62.839844 C 97.195312 62.992188 96.984375 63.164062 96.792969 63.355469 C 96.597656 63.550781 96.425781 63.761719 96.273438 63.988281 C 96.121094 64.21875 95.992188 64.457031 95.886719 64.710938 C 95.78125 64.964844 95.703125 65.226562 95.648438 65.496094 C 95.59375 65.765625 95.566406 66.035156 95.566406 66.308594 L 95.566406 78.835938 L 83.027344 78.835938 C 82.753906 78.835938 82.480469 78.859375 82.210938 78.914062 C 81.941406 78.96875 81.683594 79.046875 81.429688 79.152344 C 81.175781 79.257812 80.933594 79.386719 80.707031 79.539062 C 80.476562 79.691406 80.265625 79.863281 80.074219 80.058594 C 79.878906 80.25 79.703125 80.460938 79.550781 80.691406 C 79.398438 80.917969 79.269531 81.160156 79.167969 81.410156 C 79.0625 81.664062 78.980469 81.925781 78.929688 82.195312 C 78.875 82.464844 78.847656 82.734375 78.847656 83.007812 L 78.847656 308.460938 C 78.847656 308.734375 78.875 309.003906 78.929688 309.273438 C 78.980469 309.542969 79.0625 309.804688 79.167969 310.058594 C 79.269531 310.308594 79.398438 310.550781 79.550781 310.777344 C 79.703125 311.007812 79.878906 311.21875 80.074219 311.410156 C 80.265625 311.605469 80.476562 311.777344 80.707031 311.929688 C 80.933594 312.082031 81.175781 312.210938 81.429688 312.316406 C 81.683594 312.421875 81.941406 312.5 82.210938 312.554688 C 82.480469 312.609375 82.753906 312.632812 83.027344 312.632812 L 275.300781 312.632812 C 275.574219 312.632812 275.847656 312.609375 276.117188 312.554688 C 276.386719 312.5 276.644531 312.421875 276.898438 312.316406 C 277.152344 312.210938 277.394531 312.082031 277.621094 311.929688 C 277.851562 311.777344 278.0625 311.605469 278.257812 311.410156 C 278.449219 311.21875 278.625 311.007812 278.777344 310.777344 C 278.929688 310.550781 279.058594 310.308594 279.160156 310.058594 C 279.265625 309.804688 279.347656 309.542969 279.398438 309.273438 C 279.453125 309.003906 279.480469 308.734375 279.480469 308.460938 L 279.480469 295.933594 L 292.019531 295.933594 C 292.292969 295.933594 292.566406 295.90625 292.835938 295.855469 C 293.105469 295.800781 293.367188 295.722656 293.621094 295.617188 C 293.871094 295.511719 294.113281 295.382812 294.34375 295.230469 C 294.570312 295.078125 294.78125 294.90625 294.976562 294.710938 C 295.167969 294.519531 295.34375 294.308594 295.496094 294.078125 C 295.648438 293.851562 295.777344 293.609375 295.882812 293.355469 C 295.988281 293.105469 296.066406 292.84375 296.121094 292.574219 C 296.171875 292.304688 296.199219 292.035156 296.199219 291.757812 L 296.199219 66.308594 C 296.199219 66.035156 296.171875 65.765625 296.121094 65.496094 C 296.066406 65.226562 295.988281 64.964844 295.882812 64.710938 C 295.777344 64.457031 295.648438 64.21875 295.496094 63.988281 C 295.34375 63.761719 295.167969 63.550781 294.976562 63.355469 C 294.78125 63.164062 294.570312 62.992188 294.34375 62.839844 C 294.113281 62.6875 293.871094 62.558594 293.621094 62.453125 C 293.367188 62.347656 293.105469 62.269531 292.835938 62.214844 C 292.566406 62.160156 292.292969 62.132812 292.019531 62.132812 Z M 99.746094 99.710938 C 99.746094 99.433594 99.773438 99.164062 99.828125 98.894531 C 99.882812 98.625 99.960938 98.363281 100.066406 98.113281 C 100.171875 97.859375 100.300781 97.617188 100.453125 97.390625 C 100.605469 97.160156 100.777344 96.949219 100.972656 96.757812 C 101.164062 96.5625 101.375 96.390625 101.605469 96.238281 C 101.832031 96.085938 102.074219 95.957031 102.328125 95.851562 C 102.582031 95.746094 102.84375 95.667969 103.113281 95.613281 C 103.378906 95.5625 103.652344 95.535156 103.925781 95.535156 C 104.203125 95.535156 104.472656 95.5625 104.742188 95.613281 C 105.011719 95.667969 105.273438 95.746094 105.527344 95.851562 C 105.78125 95.957031 106.019531 96.085938 106.25 96.238281 C 106.476562 96.390625 106.6875 96.5625 106.882812 96.757812 C 107.078125 96.949219 107.25 97.160156 107.402344 97.390625 C 107.554688 97.617188 107.683594 97.859375 107.789062 98.113281 C 107.894531 98.363281 107.972656 98.625 108.027344 98.894531 C 108.082031 99.164062 108.105469 99.433594 108.105469 99.710938 L 108.105469 116.410156 L 124.828125 116.410156 L 124.828125 99.710938 C 124.828125 99.433594 124.851562 99.164062 124.90625 98.894531 C 124.960938 98.625 125.039062 98.363281 125.144531 98.113281 C 125.25 97.859375 125.378906 97.617188 125.53125 97.390625 C 125.683594 97.160156 125.855469 96.949219 126.050781 96.757812 C 126.246094 96.5625 126.457031 96.390625 126.683594 96.238281 C 126.910156 96.085938 127.152344 95.957031 127.40625 95.851562 C 127.660156 95.746094 127.921875 95.667969 128.191406 95.613281 C 128.460938 95.5625 128.730469 95.535156 129.007812 95.535156 C 129.28125 95.535156 129.550781 95.5625 129.820312 95.613281 C 130.089844 95.667969 130.351562 95.746094 130.605469 95.851562 C 130.859375 95.957031 131.101562 96.085938 131.328125 96.238281 C 131.554688 96.390625 131.769531 96.5625 131.960938 96.757812 C 132.15625 96.949219 132.328125 97.160156 132.480469 97.390625 C 132.632812 97.617188 132.761719 97.859375 132.867188 98.113281 C 132.972656 98.363281 133.050781 98.625 133.105469 98.894531 C 133.160156 99.164062 133.1875 99.433594 133.1875 99.710938 L 133.1875 141.460938 C 133.1875 141.734375 133.160156 142.003906 133.105469 142.273438 C 133.050781 142.542969 132.972656 142.804688 132.867188 143.058594 C 132.761719 143.308594 132.632812 143.550781 132.480469 143.777344 C 132.328125 144.007812 132.15625 144.21875 131.960938 144.410156 C 131.769531 144.605469 131.554688 144.777344 131.328125 144.929688 C 131.101562 145.082031 130.859375 145.210938 130.605469 145.316406 C 130.351562 145.421875 130.089844 145.5 129.820312 145.554688 C 129.550781 145.609375 129.28125 145.632812 129.007812 145.632812 C 128.730469 145.632812 128.460938 145.609375 128.191406 145.554688 C 127.921875 145.5 127.660156 145.421875 127.40625 145.316406 C 127.152344 145.210938 126.910156 145.082031 126.683594 144.929688 C 126.457031 144.777344 126.246094 144.605469 126.050781 144.410156 C 125.855469 144.21875 125.683594 144.007812 125.53125 143.777344 C 125.378906 143.550781 125.25 143.308594 125.144531 143.058594 C 125.039062 142.804688 124.960938 142.542969 124.90625 142.273438 C 124.851562 142.003906 124.828125 141.734375 124.828125 141.460938 L 124.828125 124.757812 L 108.105469 124.757812 L 108.105469 141.460938 C 108.105469 141.734375 108.082031 142.003906 108.027344 142.273438 C 107.972656 142.542969 107.894531 142.804688 107.789062 143.058594 C 107.683594 143.308594 107.554688 143.550781 107.402344 143.777344 C 107.25 144.007812 107.078125 144.21875 106.882812 144.410156 C 106.6875 144.605469 106.476562 144.777344 106.25 144.929688 C 106.019531 145.082031 105.78125 145.210938 105.527344 145.316406 C 105.273438 145.421875 105.011719 145.5 104.742188 145.554688 C 104.472656 145.609375 104.203125 145.632812 103.925781 145.632812 C 103.652344 145.632812 103.378906 145.609375 103.113281 145.554688 C 102.84375 145.5 102.582031 145.421875 102.328125 145.316406 C 102.074219 145.210938 101.832031 145.082031 101.605469 144.929688 C 101.375 144.777344 101.164062 144.605469 100.972656 144.410156 C 100.777344 144.21875 100.605469 144.007812 100.453125 143.777344 C 100.300781 143.550781 100.171875 143.308594 100.066406 143.058594 C 99.960938 142.804688 99.882812 142.542969 99.828125 142.273438 C 99.773438 142.003906 99.746094 141.734375 99.746094 141.460938 Z M 271.121094 304.285156 L 87.207031 304.285156 L 87.207031 162.335938 L 271.121094 162.335938 Z M 145.726562 103.882812 C 145.449219 103.882812 145.179688 103.859375 144.910156 103.804688 C 144.640625 103.75 144.378906 103.671875 144.125 103.566406 C 143.871094 103.460938 143.632812 103.332031 143.402344 103.179688 C 143.175781 103.027344 142.964844 102.855469 142.769531 102.660156 C 142.574219 102.46875 142.402344 102.257812 142.25 102.027344 C 142.097656 101.800781 141.96875 101.558594 141.863281 101.308594 C 141.757812 101.054688 141.679688 100.792969 141.625 100.523438 C 141.574219 100.253906 141.546875 99.984375 141.546875 99.710938 C 141.546875 99.433594 141.574219 99.164062 141.625 98.894531 C 141.679688 98.625 141.757812 98.363281 141.863281 98.113281 C 141.96875 97.859375 142.097656 97.617188 142.25 97.390625 C 142.402344 97.160156 142.574219 96.949219 142.769531 96.757812 C 142.964844 96.5625 143.175781 96.390625 143.402344 96.238281 C 143.632812 96.085938 143.871094 95.957031 144.125 95.851562 C 144.378906 95.746094 144.640625 95.667969 144.910156 95.613281 C 145.179688 95.5625 145.449219 95.535156 145.726562 95.535156 L 170.804688 95.535156 C 171.078125 95.535156 171.351562 95.5625 171.621094 95.613281 C 171.890625 95.667969 172.152344 95.746094 172.402344 95.851562 C 172.65625 95.957031 172.898438 96.085938 173.125 96.238281 C 173.355469 96.390625 173.566406 96.5625 173.761719 96.757812 C 173.953125 96.949219 174.128906 97.160156 174.28125 97.390625 C 174.433594 97.617188 174.5625 97.859375 174.667969 98.113281 C 174.769531 98.363281 174.851562 98.625 174.902344 98.894531 C 174.957031 99.164062 174.984375 99.433594 174.984375 99.710938 C 174.984375 99.984375 174.957031 100.253906 174.902344 100.523438 C 174.851562 100.792969 174.769531 101.054688 174.667969 101.308594 C 174.5625 101.558594 174.433594 101.800781 174.28125 102.027344 C 174.128906 102.257812 173.953125 102.46875 173.761719 102.660156 C 173.566406 102.855469 173.355469 103.027344 173.125 103.179688 C 172.898438 103.332031 172.65625 103.460938 172.402344 103.566406 C 172.152344 103.671875 171.890625 103.75 171.621094 103.804688 C 171.351562 103.859375 171.078125 103.882812 170.804688 103.882812 L 162.445312 103.882812 L 162.445312 141.460938 C 162.445312 141.734375 162.417969 142.003906 162.363281 142.273438 C 162.3125 142.542969 162.230469 142.804688 162.125 143.058594 C 162.023438 143.308594 161.894531 143.550781 161.742188 143.777344 C 161.585938 144.007812 161.414062 144.21875 161.21875 144.410156 C 161.027344 144.605469 160.816406 144.777344 160.585938 144.929688 C 160.359375 145.082031 160.117188 145.210938 159.863281 145.316406 C 159.609375 145.421875 159.347656 145.5 159.082031 145.554688 C 158.8125 145.609375 158.539062 145.632812 158.265625 145.632812 C 157.992188 145.632812 157.71875 145.609375 157.449219 145.554688 C 157.179688 145.5 156.917969 145.421875 156.664062 145.316406 C 156.410156 145.210938 156.171875 145.082031 155.941406 144.929688 C 155.714844 144.777344 155.503906 144.605469 155.308594 144.410156 C 155.117188 144.21875 154.941406 144.007812 154.789062 143.777344 C 154.636719 143.550781 154.507812 143.308594 154.402344 143.058594 C 154.296875 142.804688 154.21875 142.542969 154.164062 142.273438 C 154.113281 142.003906 154.085938 141.734375 154.085938 141.460938 L 154.085938 103.882812 Z M 203.65625 122.714844 C 202.152344 125.28125 197.972656 125.28125 196.46875 122.714844 L 191.703125 114.78125 L 191.703125 141.460938 C 191.703125 141.734375 191.675781 142.003906 191.625 142.273438 C 191.570312 142.542969 191.492188 142.804688 191.386719 143.058594 C 191.28125 143.308594 191.152344 143.550781 191 143.777344 C 190.847656 144.007812 190.671875 144.21875 190.480469 144.410156 C 190.285156 144.605469 190.074219 144.777344 189.847656 144.929688 C 189.617188 145.082031 189.375 145.210938 189.125 145.316406 C 188.871094 145.421875 188.609375 145.5 188.339844 145.554688 C 188.070312 145.609375 187.796875 145.632812 187.523438 145.632812 C 187.25 145.632812 186.976562 145.609375 186.707031 145.554688 C 186.4375 145.5 186.179688 145.421875 185.925781 145.316406 C 185.671875 145.210938 185.429688 145.082031 185.203125 144.929688 C 184.972656 144.777344 184.761719 144.605469 184.566406 144.410156 C 184.375 144.21875 184.199219 144.007812 184.046875 143.777344 C 183.894531 143.550781 183.765625 143.308594 183.664062 143.058594 C 183.558594 142.804688 183.476562 142.542969 183.425781 142.273438 C 183.371094 142.003906 183.34375 141.734375 183.34375 141.460938 L 183.34375 99.710938 C 183.34375 99.253906 183.417969 98.808594 183.5625 98.375 C 183.710938 97.941406 183.921875 97.542969 184.199219 97.179688 C 184.476562 96.816406 184.808594 96.503906 185.1875 96.25 C 185.566406 95.992188 185.976562 95.804688 186.417969 95.683594 C 186.859375 95.5625 187.308594 95.515625 187.765625 95.542969 C 188.222656 95.570312 188.664062 95.667969 189.089844 95.839844 C 189.511719 96.011719 189.898438 96.246094 190.246094 96.542969 C 190.59375 96.839844 190.886719 97.1875 191.117188 97.582031 L 200.0625 112.484375 L 209.007812 97.582031 C 209.242188 97.1875 209.53125 96.839844 209.878906 96.542969 C 210.226562 96.246094 210.613281 96.011719 211.039062 95.839844 C 211.460938 95.667969 211.902344 95.570312 212.359375 95.542969 C 212.816406 95.515625 213.265625 95.5625 213.707031 95.683594 C 214.148438 95.804688 214.558594 95.992188 214.941406 96.25 C 215.320312 96.503906 215.648438 96.816406 215.925781 97.179688 C 216.203125 97.542969 216.414062 97.941406 216.5625 98.375 C 216.710938 98.808594 216.78125 99.253906 216.78125 99.710938 L 216.78125 141.460938 C 216.78125 141.734375 216.757812 142.003906 216.703125 142.273438 C 216.648438 142.542969 216.570312 142.804688 216.464844 143.058594 C 216.359375 143.308594 216.230469 143.550781 216.078125 143.777344 C 215.925781 144.007812 215.753906 144.21875 215.558594 144.410156 C 215.363281 144.605469 215.152344 144.777344 214.925781 144.929688 C 214.695312 145.082031 214.457031 145.210938 214.203125 145.316406 C 213.949219 145.421875 213.6875 145.5 213.417969 145.554688 C 213.148438 145.609375 212.878906 145.632812 212.601562 145.632812 C 212.328125 145.632812 212.054688 145.609375 211.789062 145.554688 C 211.519531 145.5 211.257812 145.421875 211.003906 145.316406 C 210.75 145.210938 210.507812 145.082031 210.28125 144.929688 C 210.050781 144.777344 209.839844 144.605469 209.648438 144.410156 C 209.453125 144.21875 209.28125 144.007812 209.128906 143.777344 C 208.976562 143.550781 208.847656 143.308594 208.742188 143.058594 C 208.636719 142.804688 208.558594 142.542969 208.503906 142.273438 C 208.449219 142.003906 208.421875 141.734375 208.421875 141.460938 L 208.421875 114.78125 Z M 237.683594 116.410156 L 237.683594 93.070312 L 265.226562 120.585938 L 241.863281 120.585938 C 241.585938 120.585938 241.316406 120.558594 241.046875 120.503906 C 240.777344 120.449219 240.515625 120.371094 240.261719 120.265625 C 240.007812 120.160156 239.769531 120.03125 239.539062 119.878906 C 239.3125 119.726562 239.101562 119.554688 238.90625 119.363281 C 238.710938 119.167969 238.539062 118.957031 238.386719 118.730469 C 238.234375 118.5 238.105469 118.261719 238 118.007812 C 237.894531 117.753906 237.816406 117.492188 237.761719 117.222656 C 237.707031 116.953125 237.683594 116.683594 237.683594 116.410156 Z M 287.839844 287.585938 L 279.480469 287.585938 L 279.480469 124.757812 C 279.472656 123.609375 279.066406 122.621094 278.269531 121.796875 L 236.46875 80.046875 C 235.640625 79.246094 234.652344 78.84375 233.503906 78.835938 L 103.925781 78.835938 L 103.925781 70.484375 L 287.839844 70.484375 Z M 287.839844 287.585938 " fill-opacity="1" fill-rule="nonzero"/></g></svg>